<?xml version="1.0" encoding="UTF-8" standalone="no"?>
<svg xmlns:xlink="http://www.w3.org/1999/xlink" height="55.5px" width="163.05px" xmlns="http://www.w3.org/2000/svg">
  <g transform="matrix(1, 0, 0, 1, 81.5, 29.0)">
    <path d="M62.55 10.3 L62.55 25.5 Q62.55 26.5 61.55 26.5 L-61.25 26.5 Q-62.25 26.5 -62.25 25.5 L-62.25 10.3 Q-62.25 9.3 -61.25 9.3 L61.55 9.3 Q62.55 9.3 62.55 10.3" fill="#ff8383" fill-rule="evenodd" stroke="none"/>
    <path d="M74.05 -21.55 Q79.05 -16.55 79.05 -9.5 L79.05 -7.5 Q79.05 -0.45 74.05 4.5 69.1 9.5 62.05 9.5 L-62.0 9.5 Q-69.05 9.5 -74.05 4.5 -79.0 -0.45 -79.0 -7.5 L-79.0 -9.5 Q-79.0 -16.55 -74.05 -21.55 -69.05 -26.5 -62.0 -26.5 L62.05 -26.5 Q69.1 -26.5 74.05 -21.55" fill="#ffffff" fill-rule="evenodd" stroke="none"/>
    <path d="M74.05 -21.55 Q69.1 -26.5 62.05 -26.5 L-62.0 -26.5 Q-69.05 -26.5 -74.05 -21.55 -79.0 -16.55 -79.0 -9.5 L-79.0 -7.5 Q-79.0 -0.45 -74.05 4.5 -69.05 9.5 -62.0 9.5 L62.05 9.5 Q69.1 9.5 74.05 4.5 79.05 -0.45 79.05 -7.5 L79.05 -9.5 Q79.05 -16.55 74.05 -21.55 Z" fill="none" stroke="#ff8383" stroke-linecap="round" stroke-linejoin="round" stroke-width="5.0"/>
  </g>
</svg>
